<svg width="1000" height="680" viewBox="0 0 1000 680" fill="none" xmlns="http://www.w3.org/2000/svg">
  <rect width="1000" height="680" rx="52" fill="#FFFFFF"/>
  <rect x="50" y="50" width="900" height="580" rx="42" fill="#F7FAFC" stroke="#0B1F3A" stroke-width="8"/>
  <text x="95" y="130" font-family="Nunito, Arial, sans-serif" font-size="54" font-weight="900" fill="#0B1F3A">Experiment Instructions</text>
  <text x="97" y="176" font-family="Inter, Arial, sans-serif" font-size="24" font-weight="700" fill="#64748B">Clear steps. Safe setup. Simple explanation.</text>
  <g transform="translate(95 245)">
    <circle cx="34" cy="34" r="34" fill="#2F80ED"/><text x="25" y="45" font-family="Inter, Arial" font-size="30" font-weight="900" fill="white">1</text>
    <text x="88" y="45" font-family="Inter, Arial" font-size="31" font-weight="800" fill="#172033">Gather your materials</text>
    <circle cx="34" cy="134" r="34" fill="#21D4B4"/><text x="25" y="145" font-family="Inter, Arial" font-size="30" font-weight="900" fill="#0B1F3A">2</text>
    <text x="88" y="145" font-family="Inter, Arial" font-size="31" font-weight="800" fill="#172033">Follow the steps carefully</text>
    <circle cx="34" cy="234" r="34" fill="#FFD84D"/><text x="25" y="245" font-family="Inter, Arial" font-size="30" font-weight="900" fill="#0B1F3A">3</text>
    <text x="88" y="245" font-family="Inter, Arial" font-size="31" font-weight="800" fill="#172033">Notice what changed</text>
    <circle cx="34" cy="334" r="34" fill="#FF4FA3"/><text x="25" y="345" font-family="Inter, Arial" font-size="30" font-weight="900" fill="white">4</text>
    <text x="88" y="345" font-family="Inter, Arial" font-size="31" font-weight="800" fill="#172033">Explain how it works</text>
  </g>
  <g transform="translate(720 235)">
    <circle cx="85" cy="85" r="74" fill="#0B1F3A"/>
    <ellipse cx="85" cy="85" rx="62" ry="23" stroke="#21D4B4" stroke-width="8"/>
    <ellipse cx="85" cy="85" rx="62" ry="23" stroke="#FFD84D" stroke-width="8" transform="rotate(60 85 85)"/>
    <ellipse cx="85" cy="85" rx="62" ry="23" stroke="#FF4FA3" stroke-width="8" transform="rotate(120 85 85)"/>
    <circle cx="85" cy="85" r="18" fill="white"/>
  </g>
</svg>